<svg width="327" height="46" viewBox="0 0 327 46" fill="none" xmlns="http://www.w3.org/2000/svg">
<path d="M7.98369 14.4633C14.3755 12.8197 20.1802 9.42132 24.7421 4.6521L25.4516 3.91034C27.5352 1.73204 30.4186 0.5 33.4329 0.5H315C321.351 0.5 326.5 5.64873 326.5 12V19.3151C326.5 23.5545 324.168 27.4502 320.431 29.4521L319.183 30.1205C314.885 32.4228 311.039 35.482 307.828 39.151L305.709 41.5728C303.526 44.0685 300.371 45.5 297.055 45.5H12C5.64872 45.5 0.5 40.3513 0.5 34V24.1148C0.5 19.5669 3.57905 15.5959 7.98369 14.4633Z" fill="#AE33B9" stroke="url(#paint0_linear_1083_5)"/>
<defs>
<linearGradient id="paint0_linear_1083_5" x1="164" y1="2" x2="164" y2="40.5" gradientUnits="userSpaceOnUse">
<stop stop-color="#F36BFF"/>
<stop offset="1" stop-color="#EA04FF"/>
</linearGradient>
</defs>
</svg>
